<svg xmlns="http://www.w3.org/2000/svg" width="600" height="400" viewBox="0 0 600 400"><rect width="100%" height="100%" fill="#DDA0DD"/><path fill="#000000" d="M144.14 183.88h-15.72v9.82h12.39v5.07h-12.39v10.02h15.72v5.27H121.8v-35.43h22.34zm20.66 22.73v-11.27q-1.01-1.25-2.23-1.76-1.23-.52-2.62-.52-1.37 0-2.48.52-1.1.51-1.88 1.55-.79 1.04-1.2 2.65-.42 1.6-.42 3.78 0 2.21.35 3.74.36 1.53 1.02 2.5t1.62 1.4q.95.43 2.13.43 1.89 0 3.21-.79 1.32-.78 2.5-2.23m2.35-17.69h3.7v33.35h-6.05v-11.4q-1.5 1.6-3.38 2.58-1.89.98-4.39.98-2.06 0-3.77-.86-1.72-.86-2.95-2.49-1.24-1.63-1.91-4.03-.68-2.4-.68-5.49 0-2.79.76-5.19t2.18-4.16q1.42-1.77 3.41-2.76 1.98-.99 4.46-.99 2.35 0 3.94.81 1.59.8 2.84 2.18l.32-1.42q.32-1.11 1.52-1.11m25.28 0h6.06v25.14h-3.7q-1.2 0-1.52-1.1l-.42-2.01q-1.54 1.57-3.4 2.53-1.87.97-4.39.97-2.06 0-3.64-.7-1.58-.69-2.66-1.97-1.07-1.27-1.63-3.02-.55-1.76-.55-3.86v-15.98h6.05v15.98q0 2.3 1.07 3.56t3.2 1.26q1.57 0 2.94-.69 1.37-.7 2.59-1.93zm12.23 0h6.08v25.14h-6.08zm6.91-7.32q0 .78-.32 1.47-.32.68-.85 1.2-.52.51-1.23.82-.71.3-1.52.3-.79 0-1.48-.3-.7-.31-1.22-.82-.51-.52-.82-1.2-.3-.69-.3-1.47 0-.81.3-1.52.31-.71.82-1.23.52-.51 1.22-.82.69-.3 1.48-.3.81 0 1.52.3.71.31 1.23.82.53.52.85 1.23t.32 1.52m11.39 14.67v11.27q1.03 1.25 2.24 1.77 1.22.51 2.64.51 1.37 0 2.47-.51 1.1-.52 1.88-1.57.77-1.05 1.18-2.66.42-1.6.42-3.78 0-2.21-.36-3.74-.35-1.53-1.01-2.49-.66-.95-1.61-1.39-.94-.44-2.14-.44-1.89 0-3.21.79-1.32.8-2.5 2.24m-.81-6.24.49 2.32q1.55-1.74 3.51-2.81 1.96-1.08 4.6-1.08 2.06 0 3.76.85 1.71.86 2.94 2.49 1.24 1.63 1.91 4.02.68 2.39.68 5.48 0 2.81-.76 5.21t-2.17 4.17q-1.41 1.76-3.41 2.76-1.99.99-4.47.99-2.1 0-3.6-.65-1.49-.65-2.67-1.8v10.29h-6.05v-33.35h3.7q1.18 0 1.54 1.11m33.71-1.5q2.8 0 5.09.91 2.29.9 3.92 2.57t2.51 4.07.88 5.36q0 2.99-.88 5.39t-2.51 4.09-3.92 2.6-5.09.91q-2.81 0-5.12-.91-2.3-.91-3.93-2.6t-2.52-4.09q-.9-2.4-.9-5.39 0-2.96.9-5.36.89-2.4 2.52-4.07t3.93-2.57q2.31-.91 5.12-.91m0 21.24q3.14 0 4.65-2.1 1.5-2.11 1.5-6.18t-1.5-6.2q-1.51-2.13-4.65-2.13-3.18 0-4.71 2.15-1.53 2.14-1.53 6.18t1.53 6.16 4.71 2.12m47.34-13.47h11.76v14.33q-2.7 1.98-5.75 2.9t-6.53.92q-4.33 0-7.85-1.35-3.51-1.34-6-3.74-2.49-2.41-3.83-5.74-1.35-3.33-1.35-7.27 0-4 1.3-7.33 1.29-3.33 3.68-5.73t5.8-3.73q3.4-1.32 7.64-1.32 2.16 0 4.03.34 1.88.35 3.48.95 1.61.6 2.93 1.45 1.32.86 2.42 1.89l-1.88 2.99q-.44.71-1.15.87t-1.55-.36q-.81-.46-1.61-.93-.81-.46-1.81-.8-.99-.35-2.22-.57-1.24-.22-2.86-.22-2.62 0-4.74.88-2.12.89-3.61 2.53-1.5 1.64-2.31 3.94-.8 2.3-.8 5.15 0 3.03.86 5.42.87 2.39 2.45 4.05 1.59 1.65 3.81 2.52 2.23.87 4.98.87 1.96 0 3.5-.42 1.55-.41 3.02-1.12v-6.42h-4.46q-.64 0-1-.36-.35-.35-.35-.87zm21.95 2.3h11.42q0-1.18-.33-2.22t-1-1.82q-.66-.79-1.67-1.24-1.02-.45-2.37-.45-2.62 0-4.13 1.49-1.5 1.5-1.92 4.24m15.44 3.65h-15.56q.15 1.94.68 3.35.54 1.4 1.43 2.32.88.92 2.09 1.37 1.21.46 2.68.46t2.54-.35q1.06-.34 1.86-.75.8-.42 1.4-.76.6-.35 1.16-.35.76 0 1.13.57l1.74 2.2q-1.01 1.18-2.26 1.97-1.25.8-2.61 1.28t-2.76.67q-1.41.2-2.74.2-2.62 0-4.87-.87-2.26-.87-3.92-2.57-1.67-1.71-2.62-4.22-.96-2.51-.96-5.82 0-2.57.83-4.84.84-2.26 2.39-3.94 1.56-1.68 3.8-2.66t5.06-.98q2.38 0 4.39.76 2 .76 3.45 2.22t2.27 3.57q.82 2.12.82 4.84 0 1.38-.3 1.85-.29.48-1.12.48m11.19-12.22.42 1.98q.76-.76 1.6-1.41.85-.65 1.79-1.1.95-.45 2.02-.71 1.08-.26 2.36-.26 2.05 0 3.65.7 1.59.7 2.65 1.96 1.07 1.26 1.62 3.01t.55 3.86v16h-6.05v-16q0-2.3-1.05-3.56-1.06-1.26-3.21-1.26-1.57 0-2.94.71t-2.6 1.93v18.18h-6.05v-25.14h3.7q1.17 0 1.54 1.11m27.17 8.57h11.42q0-1.18-.33-2.22t-.99-1.82q-.66-.79-1.68-1.24t-2.37-.45q-2.62 0-4.12 1.49-1.51 1.5-1.93 4.24m15.44 3.65h-15.56q.15 1.94.69 3.35.54 1.4 1.42 2.32t2.09 1.37q1.21.46 2.68.46t2.54-.35q1.07-.34 1.86-.75.8-.42 1.4-.76.6-.35 1.16-.35.76 0 1.13.57l1.74 2.2q-1.01 1.18-2.25 1.97-1.25.8-2.61 1.28t-2.77.67q-1.41.2-2.73.2-2.63 0-4.88-.87t-3.92-2.57q-1.67-1.71-2.62-4.22-.96-2.51-.96-5.82 0-2.57.84-4.84.83-2.26 2.38-3.94 1.56-1.68 3.8-2.66t5.06-.98q2.38 0 4.39.76t3.45 2.22q1.45 1.46 2.27 3.57.82 2.12.82 4.84 0 1.38-.3 1.85-.29.48-1.12.48m-6.76-24.01h5.88l-6.06 6.4q-.46.49-.89.67t-1.11.18h-3.63l3.48-5.95q.37-.64.86-.97t1.47-.33m18.05 12.2.37 2.84q1.18-2.25 2.79-3.54 1.62-1.28 3.82-1.28 1.74 0 2.8.76l-.39 4.53q-.13.44-.36.62-.23.19-.62.19-.37 0-1.09-.12-.73-.13-1.41-.13-1.01 0-1.79.3-.79.29-1.41.84-.63.55-1.1 1.34-.48.78-.9 1.79v15.48h-6.05v-25.14h3.55q.93 0 1.3.33t.49 1.19m13.13-1.52h6.08v25.14h-6.08zm6.91-7.32q0 .78-.32 1.47-.31.68-.84 1.2-.53.51-1.24.82-.71.3-1.52.3-.78 0-1.48-.3-.7-.31-1.21-.82-.52-.52-.82-1.2-.31-.69-.31-1.47 0-.81.31-1.52.3-.71.82-1.23.51-.51 1.21-.82.7-.3 1.48-.3.81 0 1.52.3.71.31 1.24.82.53.52.84 1.23.32.71.32 1.52m24.94 10.43-1.59 2.21q-.27.34-.53.54-.25.19-.74.19-.47 0-.91-.28t-1.05-.63q-.61-.36-1.46-.64t-2.09-.28q-1.6 0-2.8.57-1.2.58-1.99 1.66-.8 1.07-1.19 2.61-.39 1.53-.39 3.46 0 2.01.42 3.58.43 1.57 1.24 2.63.81 1.07 1.96 1.62t2.6.55q1.44 0 2.34-.35.89-.36 1.5-.79.62-.43 1.07-.78.45-.36 1.02-.36.73 0 1.1.57l1.74 2.2q-1.01 1.18-2.18 1.97-1.18.8-2.44 1.28t-2.6.67q-1.33.2-2.65.2-2.33 0-4.39-.87t-3.6-2.54q-1.54-1.66-2.44-4.08-.89-2.41-.89-5.5 0-2.77.79-5.13.8-2.36 2.34-4.09 1.55-1.73 3.82-2.71 2.28-.98 5.25-.98 2.82 0 4.93.91 2.12.9 3.81 2.59m15.15-3.5q2.79 0 5.08.91 2.29.9 3.92 2.57t2.51 4.07.88 5.36q0 2.99-.88 5.39t-2.51 4.09-3.92 2.6-5.08.91q-2.82 0-5.13-.91-2.3-.91-3.93-2.6t-2.52-4.09q-.9-2.4-.9-5.39 0-2.96.9-5.36.89-2.4 2.52-4.07t3.93-2.57q2.31-.91 5.13-.91m0 21.24q3.13 0 4.64-2.1 1.5-2.11 1.5-6.18t-1.5-6.2q-1.51-2.13-4.64-2.13-3.19 0-4.72 2.15-1.53 2.14-1.53 6.18t1.53 6.16 4.72 2.12"/></svg>