<svg xmlns="http://www.w3.org/2000/svg" width="600" height="400" viewBox="0 0 600 400"><rect width="100%" height="100%" fill="#ADD8E6"/><path fill="#000000" d="M126.31 180.535v31.81h-5.94v-31.81zm11.68 31.81h-5.44v-22.57h3.33q1.05 0 1.38.99l.35 1.67q.6-.66 1.25-1.21t1.38-.95q.74-.39 1.59-.62.84-.23 1.86-.23 2.13 0 3.5 1.15 1.38 1.16 2.06 3.07.53-1.12 1.32-1.93.79-.8 1.74-1.3.95-.51 2.01-.75 1.07-.24 2.15-.24 1.87 0 3.32.57t2.44 1.67 1.51 2.68q.52 1.59.52 3.63v14.37h-5.44v-14.37q0-2.15-.94-3.24-.95-1.09-2.78-1.09-.83 0-1.55.29-.71.28-1.25.82t-.85 1.35q-.31.82-.31 1.87v14.37h-5.45v-14.37q0-2.26-.91-3.3-.92-1.03-2.68-1.03-1.19 0-2.21.58-1.02.59-1.9 1.6zm43.34-5.83v-3.81q-2.36.11-3.96.41-1.61.3-2.58.76-.96.46-1.38 1.08-.42.61-.42 1.34 0 1.43.85 2.05.84.61 2.21.61 1.67 0 2.89-.6 1.22-.61 2.39-1.84m-11.49-11.86-.96-1.74q3.89-3.56 9.37-3.56 1.98 0 3.54.65t2.64 1.8q1.08 1.16 1.64 2.76.56 1.61.56 3.52v14.26h-2.46q-.77 0-1.19-.23t-.66-.94l-.49-1.62q-.85.77-1.67 1.35-.81.58-1.69.98-.88.39-1.88.6t-2.21.21q-1.43 0-2.64-.38-1.21-.39-2.09-1.16t-1.37-1.91q-.48-1.15-.48-2.66 0-.86.28-1.71.29-.85.94-1.62t1.68-1.45q1.04-.68 2.54-1.19 1.51-.5 3.51-.82t4.58-.39v-1.32q0-2.26-.97-3.35t-2.79-1.09q-1.32 0-2.19.31t-1.53.69q-.66.39-1.2.69-.54.31-1.2.31-.57 0-.97-.29-.39-.3-.64-.7m30.14 5.85q1.02 0 1.76-.27.75-.28 1.25-.76.49-.48.75-1.17.25-.68.25-1.49 0-1.67-1-2.65t-3.01-.98q-2 0-3 .98t-1 2.65q0 .79.25 1.47.26.68.75 1.18.5.49 1.26.77.75.27 1.74.27m6.14 12.85q0-.66-.39-1.08-.4-.41-1.08-.64-.68-.24-1.6-.35-.91-.11-1.93-.16-1.03-.06-2.11-.1-1.09-.04-2.13-.18-.9.51-1.46 1.19t-.56 1.59q0 .59.3 1.11.29.51.94.89.65.37 1.68.58 1.04.21 2.53.21 1.52 0 2.62-.23t1.82-.64q.71-.41 1.04-.97t.33-1.22m-1.08-22.81h6.49v2.02q0 .97-1.16 1.19l-2.03.37q.47 1.17.47 2.56 0 1.67-.68 3.02-.67 1.35-1.85 2.3-1.19.95-2.81 1.46-1.62.52-3.49.52-.66 0-1.27-.07-.62-.06-1.21-.17-1.06.64-1.06 1.43 0 .68.63 1t1.66.45 2.35.17q1.32.03 2.71.14t2.71.38q1.32.28 2.35.87 1.03.6 1.66 1.62t.63 2.63q0 1.49-.74 2.9t-2.13 2.51q-1.4 1.1-3.44 1.77-2.03.67-4.63.67-2.55 0-4.44-.49-1.89-.5-3.15-1.32-1.25-.83-1.87-1.91-.61-1.07-.61-2.24 0-1.58.95-2.65.96-1.07 2.63-1.71-.9-.46-1.43-1.23-.52-.77-.52-2.02 0-.51.18-1.05.19-.54.55-1.06.37-.53.92-1 .55-.48 1.29-.85-1.71-.93-2.69-2.47t-.98-3.6q0-1.68.67-3.03t1.87-2.31 2.84-1.46q1.64-.51 3.57-.51 1.46 0 2.73.3 1.28.3 2.33.87m14.22 7.92h10.25q0-1.06-.3-1.99-.3-.94-.89-1.64-.59-.71-1.51-1.11-.91-.41-2.12-.41-2.35 0-3.71 1.34-1.35 1.34-1.72 3.81m13.86 3.28h-13.97q.13 1.73.61 3 .49 1.26 1.28 2.09.79.82 1.88 1.23t2.41.41 2.27-.31q.96-.31 1.68-.68.71-.38 1.25-.68.54-.31 1.05-.31.68 0 1.01.5l1.56 1.98q-.9 1.06-2.02 1.78-1.13.71-2.35 1.14t-2.48.6q-1.27.18-2.46.18-2.35 0-4.37-.78-2.03-.78-3.52-2.31-1.5-1.53-2.36-3.78-.86-2.26-.86-5.23 0-2.31.75-4.34.75-2.04 2.15-3.55 1.39-1.5 3.41-2.38 2.01-.88 4.54-.88 2.13 0 3.94.68 1.8.68 3.1 1.99t2.04 3.21q.73 1.9.73 4.35 0 1.23-.26 1.66-.27.43-1.01.43m10.05-10.98.37 1.78q.69-.68 1.44-1.26.76-.59 1.61-.99.85-.41 1.82-.64.96-.23 2.11-.23 1.85 0 3.28.62 1.43.63 2.38 1.76.96 1.14 1.45 2.71.5 1.57.5 3.46v14.37h-5.43v-14.37q0-2.06-.95-3.2-.95-1.13-2.88-1.13-1.41 0-2.64.64t-2.33 1.74v16.32h-5.44v-22.57h3.32q1.06 0 1.39.99m47.32 5.63h10.56v12.87q-2.42 1.78-5.16 2.61-2.74.82-5.86.82-3.89 0-7.05-1.21t-5.39-3.36q-2.23-2.16-3.44-5.15t-1.21-6.54q0-3.58 1.16-6.57 1.17-3 3.31-5.15 2.15-2.16 5.21-3.35 3.05-1.18 6.86-1.18 1.94 0 3.62.3 1.68.31 3.12.85t2.63 1.31 2.18 1.69l-1.69 2.69q-.4.64-1.04.78t-1.38-.32l-1.46-.84q-.72-.41-1.61-.72t-2.01-.51q-1.11-.2-2.56-.2-2.35 0-4.26.8-1.9.79-3.24 2.26-1.34 1.48-2.07 3.54-.72 2.07-.72 4.62 0 2.73.78 4.88.78 2.14 2.2 3.63 1.42 1.48 3.42 2.26t4.46.78q1.76 0 3.15-.37t2.71-1.01v-5.77h-4.01q-.57 0-.89-.31-.32-.32-.32-.79zm19.71 2.07h10.26q0-1.06-.3-1.99-.3-.94-.89-1.64-.6-.71-1.51-1.11-.91-.41-2.12-.41-2.36 0-3.71 1.34t-1.73 3.81m13.86 3.28h-13.97q.14 1.73.62 3 .48 1.26 1.28 2.09.79.82 1.88 1.23t2.41.41 2.27-.31q.96-.31 1.67-.68.72-.38 1.26-.68.54-.31 1.04-.31.69 0 1.02.5l1.56 1.98q-.9 1.06-2.03 1.78-1.12.71-2.34 1.14t-2.49.6q-1.26.18-2.45.18-2.35 0-4.38-.78-2.02-.78-3.52-2.31-1.49-1.53-2.35-3.78-.86-2.26-.86-5.23 0-2.31.75-4.34.75-2.04 2.14-3.55 1.4-1.5 3.41-2.38 2.02-.88 4.55-.88 2.13 0 3.94.68 1.8.68 3.1 1.99t2.03 3.21q.74 1.9.74 4.35 0 1.23-.26 1.66-.27.43-1.02.43m10.06-10.98.37 1.78q.68-.68 1.44-1.26.76-.59 1.61-.99.85-.41 1.81-.64.97-.23 2.12-.23 1.84 0 3.27.62 1.43.63 2.39 1.76.96 1.14 1.45 2.71.5 1.57.5 3.46v14.37h-5.44v-14.37q0-2.06-.94-3.2-.95-1.13-2.88-1.13-1.41 0-2.64.64-1.24.64-2.34 1.74v16.32h-5.43v-22.57h3.32q1.06 0 1.39.99m24.4 7.7h10.25q0-1.06-.3-1.99-.3-.94-.89-1.64-.59-.71-1.51-1.11-.91-.41-2.12-.41-2.35 0-3.71 1.34-1.35 1.34-1.72 3.81m13.86 3.28h-13.97q.13 1.73.61 3 .49 1.26 1.28 2.09.79.82 1.88 1.23t2.41.41 2.27-.31q.96-.31 1.68-.68.71-.38 1.25-.68.54-.31 1.05-.31.68 0 1.01.5l1.56 1.98q-.9 1.06-2.02 1.78-1.13.71-2.35 1.14t-2.48.6q-1.27.18-2.46.18-2.35 0-4.37-.78-2.03-.78-3.52-2.31-1.5-1.53-2.36-3.78-.86-2.26-.86-5.23 0-2.31.75-4.34.75-2.04 2.15-3.55 1.39-1.5 3.41-2.38 2.01-.88 4.54-.88 2.13 0 3.94.68 1.8.68 3.1 1.99t2.03 3.21q.74 1.9.74 4.35 0 1.23-.26 1.66-.27.43-1.01.43m-6.08-21.56h5.28l-5.43 5.74q-.42.44-.8.6-.39.17-1 .17h-3.26l3.12-5.35q.33-.57.77-.87.44-.29 1.32-.29m16.22 10.95.33 2.55q1.05-2.02 2.51-3.17 1.45-1.16 3.43-1.16 1.56 0 2.51.68l-.36 4.07q-.11.4-.32.56-.2.17-.56.17-.33 0-.98-.11-.64-.11-1.26-.11-.9 0-1.61.26-.7.27-1.26.76-.56.5-.99 1.2t-.8 1.61v13.9h-5.44v-22.57h3.19q.84 0 1.17.3.33.29.44 1.06m11.79-1.36h5.46v22.57h-5.46zm6.2-6.58q0 .7-.28 1.32-.29.62-.76 1.08t-1.11.74q-.64.27-1.37.27-.7 0-1.33-.27-.62-.28-1.09-.74-.46-.46-.73-1.08-.28-.62-.28-1.32 0-.73.28-1.36.27-.64.73-1.1.47-.47 1.09-.74.63-.28 1.33-.28.73 0 1.37.28.64.27 1.11.74.47.46.76 1.1.28.63.28 1.36m22.4 9.37-1.43 1.98q-.24.31-.47.49-.23.17-.67.17-.42 0-.82-.25-.39-.25-.94-.57t-1.31-.58q-.76-.25-1.88-.25-1.43 0-2.51.52t-1.8 1.48q-.71.97-1.06 2.35-.35 1.37-.35 3.11 0 1.8.38 3.21.39 1.41 1.11 2.37.73.95 1.76 1.45 1.04.49 2.33.49 1.3 0 2.1-.32.81-.31 1.36-.7.55-.38.95-.7.41-.32.92-.32.66 0 .99.5l1.56 1.98q-.9 1.06-1.96 1.78-1.05.71-2.19 1.14-1.13.43-2.33.6-1.2.18-2.39.18-2.09 0-3.93-.78-1.85-.78-3.24-2.28-1.38-1.49-2.19-3.66-.8-2.17-.8-4.94 0-2.49.72-4.61.71-2.12 2.1-3.67 1.38-1.55 3.43-2.43 2.04-.88 4.71-.88 2.53 0 4.43.81t3.42 2.33m15.53 13.95v-3.81q-2.35.11-3.96.41-1.6.3-2.57.76t-1.39 1.08q-.42.61-.42 1.34 0 1.43.85 2.05.85.61 2.21.61 1.67 0 2.89-.6 1.23-.61 2.39-1.84m-11.48-11.86-.97-1.74q3.89-3.56 9.37-3.56 1.98 0 3.54.65 1.57.65 2.64 1.8 1.08 1.16 1.64 2.76.56 1.61.56 3.52v14.26h-2.46q-.77 0-1.19-.23t-.66-.94l-.48-1.62q-.86.77-1.67 1.35-.82.58-1.7.98-.88.39-1.88.6t-2.21.21q-1.43 0-2.64-.38-1.21-.39-2.09-1.16t-1.36-1.91q-.49-1.15-.49-2.66 0-.86.29-1.71.28-.85.93-1.62t1.69-1.45q1.03-.68 2.54-1.19 1.5-.5 3.51-.82 2-.32 4.57-.39v-1.32q0-2.26-.97-3.35-.96-1.09-2.79-1.09-1.32 0-2.19.31t-1.53.69q-.66.39-1.2.69-.54.31-1.2.31-.57 0-.96-.29-.4-.3-.64-.7m46.95 13.62h5.72v4.07h-17.6v-4.07h6.44v-18.55q0-1.1.07-2.26l-4.58 3.83q-.39.3-.78.38-.38.08-.73.01-.34-.06-.6-.23-.26-.16-.4-.36l-1.71-2.36 9.7-8.25h4.47z"/></svg>