<svg xmlns="http://www.w3.org/2000/svg" width="400" height="250" viewBox="0 0 400 250"><rect width="100%" height="100%" fill="#90EE90"/><path fill="#000000" d="M85.28 112.165v20.97h-3.91v-20.97zm7.7 20.97H89.4v-14.88h2.19q.7 0 .91.66l.24 1.1q.39-.44.82-.8.42-.36.91-.62.48-.26 1.04-.42.56-.15 1.23-.15 1.4 0 2.31.76t1.36 2.02q.34-.73.87-1.26.52-.53 1.14-.87.63-.33 1.33-.49t1.41-.16q1.24 0 2.19.38.96.37 1.61 1.1.65.72 1 1.77.34 1.04.34 2.39v9.47h-3.59v-9.47q0-1.42-.62-2.14t-1.83-.72q-.55 0-1.02.19t-.82.55q-.36.35-.56.89-.21.54-.21 1.23v9.47h-3.59v-9.47q0-1.49-.6-2.17-.61-.69-1.77-.69-.78 0-1.45.39-.68.38-1.26 1.05zm28.57-3.84v-2.51q-1.55.07-2.61.27-1.06.19-1.7.5-.64.3-.91.71-.28.4-.28.88 0 .94.56 1.35t1.46.41q1.1 0 1.9-.4.81-.4 1.58-1.21m-7.57-7.82-.64-1.14q2.57-2.35 6.18-2.35 1.3 0 2.33.43 1.03.42 1.74 1.18.71.77 1.08 1.82.37 1.06.37 2.32v9.4h-1.62q-.51 0-.78-.15-.28-.15-.44-.62l-.32-1.07q-.56.51-1.1.89t-1.12.65q-.58.26-1.24.39-.66.14-1.45.14-.95 0-1.74-.25-.8-.26-1.38-.76-.58-.51-.9-1.26-.32-.76-.32-1.76 0-.56.19-1.12t.62-1.07q.42-.51 1.1-.96.69-.45 1.68-.78t2.31-.54 3.02-.26v-.87q0-1.49-.64-2.21t-1.84-.72q-.87 0-1.44.21-.58.2-1.01.45-.44.26-.79.46-.36.2-.79.2-.38 0-.64-.19-.26-.2-.42-.46m19.86 3.86q.67 0 1.16-.18.5-.18.82-.5.33-.32.5-.77.16-.45.16-.99 0-1.1-.66-1.74-.66-.65-1.98-.65t-1.98.65q-.66.64-.66 1.74 0 .53.17.97.17.45.49.78.33.33.83.51t1.15.18m4.05 8.47q0-.44-.26-.71-.26-.28-.71-.43t-1.05-.23q-.61-.07-1.28-.1-.67-.04-1.39-.07t-1.4-.12q-.6.34-.96.79-.37.45-.37 1.04 0 .39.19.73.2.34.62.59.43.25 1.11.38.69.14 1.67.14 1 0 1.73-.15.72-.15 1.19-.42t.69-.64.22-.8m-.71-15.04h4.28v1.33q0 .64-.77.79l-1.34.24q.31.77.31 1.69 0 1.1-.44 1.99-.45.89-1.23 1.51-.78.63-1.85.97-1.06.34-2.3.34-.43 0-.84-.04-.4-.05-.79-.12-.7.42-.7.94 0 .45.41.66.42.21 1.1.3t1.55.11 1.78.09q.92.08 1.79.26t1.55.57 1.09 1.07q.42.67.42 1.73 0 .98-.49 1.91t-1.41 1.66q-.92.72-2.26 1.16t-3.05.44q-1.68 0-2.93-.32-1.25-.33-2.07-.87-.83-.55-1.24-1.26-.4-.71-.4-1.47 0-1.05.63-1.75.63-.71 1.73-1.13-.59-.3-.94-.81t-.35-1.33q0-.34.12-.69.13-.36.37-.7.24-.35.6-.66.36-.32.85-.56-1.13-.61-1.77-1.63-.65-1.01-.65-2.37 0-1.11.44-2 .45-.89 1.24-1.52t1.87-.96q1.08-.34 2.35-.34.96 0 1.8.2.84.19 1.54.57m9.37 5.22h6.75q0-.7-.19-1.31-.2-.62-.59-1.08-.39-.47-.99-.73-.61-.27-1.4-.27-1.55 0-2.45.88-.89.89-1.13 2.51m9.13 2.16h-9.21q.09 1.15.41 1.98t.84 1.38q.52.54 1.24.81t1.59.27 1.5-.21q.63-.2 1.1-.44.47-.25.83-.45.35-.21.69-.21.45 0 .66.34l1.03 1.3q-.59.7-1.33 1.17t-1.55.75q-.8.29-1.63.4-.84.12-1.62.12-1.55 0-2.89-.52-1.33-.51-2.32-1.52-.98-1.01-1.55-2.49-.56-1.49-.56-3.45 0-1.52.49-2.86t1.41-2.34q.92-.99 2.25-1.57t2.99-.58q1.41 0 2.6.45t2.04 1.31q.86.87 1.35 2.12.48 1.25.48 2.86 0 .82-.17 1.1-.18.28-.67.28m6.63-7.23.24 1.17q.45-.45.95-.83.5-.39 1.06-.66.56-.26 1.2-.42.64-.15 1.39-.15 1.22 0 2.16.41.94.42 1.57 1.16.63.75.96 1.79.33 1.03.33 2.28v9.47h-3.58v-9.47q0-1.36-.63-2.11-.62-.75-1.9-.75-.93 0-1.74.43-.81.42-1.53 1.14v10.76h-3.59v-14.88h2.19q.7 0 .92.66m31.19 3.71h6.96v8.48q-1.6 1.17-3.4 1.72-1.81.54-3.87.54-2.56 0-4.64-.8-2.09-.79-3.56-2.21-1.47-1.43-2.27-3.4-.79-1.97-.79-4.3 0-2.37.76-4.34.77-1.97 2.19-3.39 1.41-1.42 3.43-2.21 2.01-.78 4.52-.78 1.28 0 2.39.2 1.1.21 2.05.56.95.36 1.74.87.78.5 1.43 1.11l-1.11 1.77q-.27.42-.69.52-.42.09-.91-.22-.48-.27-.96-.55-.47-.27-1.06-.47-.59-.21-1.32-.34t-1.69-.13q-1.55 0-2.81.52-1.25.53-2.14 1.5-.88.97-1.36 2.33t-.48 3.05q0 1.79.52 3.21.51 1.41 1.45 2.39.93.98 2.25 1.49 1.32.52 2.95.52 1.16 0 2.07-.25.91-.24 1.78-.66v-3.8h-2.64q-.37 0-.58-.21t-.21-.52zm12.99 1.36h6.76q0-.7-.2-1.31-.2-.62-.59-1.08-.39-.47-.99-.73-.6-.27-1.4-.27-1.55 0-2.44.88-.89.89-1.14 2.51m9.13 2.16h-9.2q.08 1.15.4 1.98t.84 1.38q.53.54 1.24.81.72.27 1.59.27t1.5-.21q.63-.2 1.1-.44.47-.25.83-.45.36-.21.69-.21.45 0 .67.34l1.03 1.3q-.6.7-1.34 1.17t-1.54.75q-.81.29-1.64.4-.84.12-1.62.12-1.55 0-2.88-.52-1.34-.51-2.32-1.52-.99-1.01-1.56-2.49-.56-1.49-.56-3.45 0-1.52.49-2.86.5-1.34 1.42-2.34.92-.99 2.24-1.57 1.33-.58 3-.58 1.4 0 2.59.45t2.05 1.31q.85.87 1.34 2.12.48 1.25.48 2.86 0 .82-.17 1.1t-.67.28m6.63-7.23.25 1.17q.45-.45.95-.83.5-.39 1.06-.66.55-.26 1.19-.42.64-.15 1.39-.15 1.22 0 2.16.41.95.42 1.58 1.16.63.75.95 1.79.33 1.03.33 2.28v9.47h-3.58v-9.47q0-1.36-.62-2.11-.63-.75-1.9-.75-.93 0-1.74.43-.82.42-1.54 1.14v10.76h-3.58v-14.88h2.19q.69 0 .91.66m16.08 5.07h6.76q0-.7-.2-1.31-.19-.62-.59-1.08-.39-.47-.99-.73-.6-.27-1.4-.27-1.55 0-2.44.88-.89.89-1.14 2.51m9.14 2.16h-9.21q.09 1.15.4 1.98.32.83.85 1.38.52.54 1.24.81.71.27 1.58.27t1.5-.21q.63-.2 1.11-.44.47-.25.82-.45.36-.21.69-.21.45 0 .67.34l1.03 1.3q-.6.7-1.34 1.17t-1.54.75q-.81.29-1.64.4-.83.12-1.62.12-1.55 0-2.88-.52-1.34-.51-2.32-1.52-.99-1.01-1.55-2.49-.57-1.49-.57-3.45 0-1.52.49-2.86.5-1.34 1.42-2.34.92-.99 2.25-1.57 1.32-.58 2.99-.58 1.41 0 2.6.45 1.18.45 2.04 1.31.86.87 1.34 2.12.49 1.25.49 2.86 0 .82-.18 1.1-.17.28-.66.28m-4.01-14.21h3.48l-3.58 3.79q-.27.29-.53.39-.25.11-.66.11h-2.14l2.06-3.52q.21-.38.5-.57.29-.2.87-.2m10.69 7.22.22 1.68q.69-1.33 1.65-2.09t2.26-.76q1.03 0 1.66.45l-.24 2.68q-.07.26-.21.37-.13.11-.37.11-.21 0-.64-.07-.43-.08-.83-.08-.6 0-1.06.18-.47.17-.84.5-.37.32-.65.79-.28.46-.53 1.06v9.16h-3.58v-14.88h2.1q.55 0 .77.2.22.19.29.7m7.77-.9h3.6v14.88h-3.6zm4.09-4.33q0 .46-.19.87-.19.4-.5.71-.31.3-.73.48-.42.19-.9.19-.46 0-.88-.19-.41-.18-.71-.48-.31-.31-.49-.71-.18-.41-.18-.87 0-.48.18-.9t.49-.73q.3-.3.71-.48.42-.18.88-.18.48 0 .9.18t.73.48q.31.31.5.73t.19.9m14.76 6.17-.94 1.31q-.16.2-.31.32-.15.11-.44.11-.28 0-.54-.16-.26-.17-.62-.38-.37-.21-.87-.38-.5-.16-1.24-.16-.94 0-1.65.34t-1.18.98q-.47.63-.7 1.54-.24.91-.24 2.05 0 1.19.26 2.12.25.93.73 1.56t1.16.96q.68.32 1.54.32.85 0 1.38-.21t.89-.46q.37-.26.63-.47.27-.21.61-.21.43 0 .65.34l1.03 1.3q-.6.7-1.29 1.17-.7.47-1.45.75-.74.29-1.53.4-.79.12-1.58.12-1.37 0-2.59-.52-1.22-.51-2.13-1.5-.92-.98-1.45-2.41-.52-1.43-.52-3.26 0-1.64.47-3.04.47-1.39 1.38-2.42.91-1.02 2.26-1.6t3.11-.58q1.66 0 2.92.54 1.25.53 2.25 1.53m10.24 9.2v-2.51q-1.55.07-2.61.27-1.06.19-1.7.5-.63.3-.91.71-.28.4-.28.88 0 .94.56 1.35t1.46.41q1.1 0 1.91-.4.8-.4 1.57-1.21m-7.57-7.82-.64-1.14q2.57-2.35 6.18-2.35 1.3 0 2.33.43 1.03.42 1.74 1.18.71.77 1.08 1.82.37 1.06.37 2.32v9.4h-1.62q-.51 0-.78-.15-.28-.15-.44-.62l-.32-1.07q-.56.51-1.1.89t-1.12.65q-.58.26-1.24.39-.65.14-1.45.14-.94 0-1.74-.25-.8-.26-1.38-.76-.58-.51-.9-1.26-.32-.76-.32-1.76 0-.56.19-1.12t.62-1.07q.42-.51 1.11-.96.68-.45 1.67-.78t2.31-.54 3.02-.26v-.87q0-1.49-.64-2.21t-1.84-.72q-.87 0-1.44.21-.58.2-1.01.45-.44.26-.79.46-.36.2-.79.2-.38 0-.64-.19-.26-.2-.42-.46m28.55 8.33h5.38q.58 0 .92.32.34.33.34.86v2.15h-14.38v-1.19q0-.36.15-.76t.49-.72l6.36-6.38q.8-.81 1.43-1.55t1.05-1.46q.42-.73.65-1.48.22-.74.22-1.57 0-.75-.22-1.33-.21-.57-.61-.96t-.96-.59q-.56-.19-1.25-.19-.64 0-1.19.18-.54.18-.96.51-.42.32-.71.76-.29.43-.44.95-.24.67-.63.89t-1.13.1l-1.89-.33q.22-1.51.84-2.65.63-1.14 1.56-1.9.94-.76 2.15-1.14 1.21-.39 2.6-.39 1.45 0 2.65.43 1.21.43 2.06 1.21.86.78 1.34 1.88.47 1.11.47 2.45 0 1.16-.34 2.15t-.91 1.89-1.34 1.74-1.61 1.71l-4.73 4.83q.68-.21 1.36-.32.67-.1 1.28-.1"/></svg>